<svg version="1.2" xmlns="http://www.w3.org/2000/svg" viewBox="0 0 113 79" width="200" height="140">
	<style>
		.s0 { fill: #000000 } 
		.s1 { fill: #86c9cb } 
	</style>
	<path id="norr uni" class="s0" aria-label="norr
uni"  d="m11.9 14.8v16.2h-7.2v-28h6.8l0.1 7h-0.4q1-3.5 3.2-5.4 2.1-2 5.5-2 2.8 0 4.9 1.3 2.1 1.3 3.2 3.7 1.2 2.3 1.2 5.6v17.8h-7.2v-16.5q0-2.6-1.3-4.1-1.3-1.5-3.6-1.5-1.5 0-2.7 0.7-1.2 0.7-1.8 2-0.7 1.3-0.7 3.2zm-1.3 0v16.2h-7.2v-28h6.8l0.1 7h-0.4q1.1-3.5 3.2-5.4 2.2-2 5.5-2 2.8 0 4.9 1.3 2.1 1.3 3.2 3.7 1.2 2.3 1.2 5.6v17.8h-7.2v-16.5q0-2.6-1.3-4.1-1.3-1.5-3.6-1.5-1.5 0-2.7 0.7-1.2 0.7-1.8 2-0.7 1.3-0.7 3.2zm37.1 16.7q-4 0-7-1.8-2.9-1.8-4.5-5-1.6-3.3-1.6-7.6 0-4.3 1.6-7.6 1.6-3.2 4.5-5 3-1.9 7-1.9 4.1 0 7 1.9 2.9 1.8 4.5 5 1.6 3.3 1.6 7.6 0 4.3-1.6 7.6-1.6 3.2-4.5 5-2.9 1.8-7 1.8zm0-5.9q1.9 0 3.2-1.1 1.3-1.1 2-3 0.6-2 0.6-4.4 0-2.5-0.6-4.4-0.7-1.9-2-3-1.3-1.1-3.2-1.1-1.9 0-3.2 1.1-1.3 1.1-1.9 3-0.7 1.9-0.7 4.4 0 2.4 0.7 4.4 0.6 1.9 1.9 3 1.3 1.1 3.2 1.1zm-1.3 5.9q-4 0-7-1.8-2.9-1.8-4.5-5-1.6-3.3-1.6-7.6 0-4.3 1.6-7.6 1.6-3.2 4.5-5 3-1.9 7-1.9 4.1 0 7 1.9 3 1.8 4.5 5 1.6 3.3 1.6 7.6 0 4.3-1.6 7.6-1.5 3.2-4.5 5-2.9 1.8-7 1.8zm0-5.9q1.9 0 3.2-1.1 1.3-1.1 2-3 0.6-2 0.6-4.4 0-2.5-0.6-4.4-0.7-1.9-2-3-1.3-1.1-3.2-1.1-1.9 0-3.2 1.1-1.3 1.1-1.9 3-0.7 1.9-0.7 4.4 0 2.4 0.7 4.4 0.6 1.9 1.9 3 1.3 1.1 3.2 1.1zm26.5 5.4h-7.2v-28h7v4.9h0.3q0.7-2.6 2.4-3.9 1.8-1.4 4-1.4 0.6 0 1.2 0.1 0.7 0.1 1.2 0.2v6.7q-0.5-0.2-1.4-0.3-0.9-0.1-1.7-0.1-1.7 0-3 0.8-1.3 0.7-2.1 2-0.7 1.3-0.7 3.1zm-1.3 0h-7.2v-28h7v4.8h0.3q0.7-2.6 2.4-3.9 1.8-1.3 4-1.3 0.6 0 1.2 0.1 0.7 0 1.2 0.1v6.7q-0.5-0.1-1.4-0.2-0.9-0.1-1.7-0.1-1.7 0-3 0.7-1.3 0.7-2.1 2.1-0.7 1.3-0.7 3zm21.3 0h-7.2v-28h7v4.9h0.3q0.7-2.6 2.4-3.9 1.8-1.4 4-1.4 0.6 0 1.2 0.1 0.7 0.1 1.2 0.2v6.7q-0.5-0.2-1.4-0.3-0.9-0.1-1.7-0.1-1.7 0-3 0.8-1.3 0.7-2.1 2-0.7 1.3-0.7 3.1zm-1.3 0h-7.2v-28h7v4.9h0.3q0.7-2.6 2.4-3.9 1.8-1.4 4-1.4 0.6 0 1.2 0.1 0.7 0 1.2 0.2v6.7q-0.5-0.2-1.4-0.3-0.9-0.1-1.7-0.1-1.7 0-3 0.7-1.3 0.8-2.1 2.1-0.7 1.3-0.7 3z"/>
	<path id="norr uni" class="s1" aria-label="norr
uni"  d="m19.7 77.5q-4.3 0-7.6-1.7-3.3-1.8-5.1-5.2-1.8-3.3-1.8-8.1v-25.4h9.8v23.9q0 4.1 2.2 6.4 2.3 2.2 6.1 2.2 2.6 0 4.7-1.1 2-1 3.1-3.1 1.2-2.1 1.2-4.9v-23.4h9.9v39.9h-9.4l-0.1-9.9h0.8q-1.8 5.3-5.3 7.8-3.4 2.6-8.5 2.6zm-2 0q-4.4 0-7.7-1.7-3.2-1.8-5-5.2-1.8-3.3-1.8-8.1v-25.4h9.8v23.9q0 4.1 2.2 6.4 2.2 2.2 6.1 2.2 2.6 0 4.6-1.1 2.1-1 3.2-3.1 1.2-2.1 1.2-4.9v-23.4h9.8v39.9h-9.3l-0.1-9.9h0.7q-1.7 5.3-5.2 7.8-3.5 2.6-8.5 2.6zm45.3-23.9v23.4h-9.8v-39.9h9.3l0.2 9.9h-0.8q1.7-5.2 5.2-7.8 3.4-2.6 8.6-2.6 4.4 0 7.6 1.8 3.2 1.7 5 5.1 1.8 3.3 1.8 8.1v25.4h-9.8v-23.9q0-4.1-2.2-6.3-2.2-2.3-6-2.3-2.6 0-4.7 1.1-2 1-3.2 3.1-1.2 2-1.2 4.9zm-2 0v23.4h-9.8v-39.9h9.3l0.1 9.9h-0.7q1.7-5.2 5.2-7.8 3.4-2.6 8.6-2.6 4.3 0 7.6 1.8 3.2 1.7 5 5.1 1.8 3.3 1.8 8.1v25.4h-9.8v-23.9q0-4.1-2.2-6.3-2.2-2.3-6.1-2.3-2.6 0-4.6 1.1-2.1 1-3.3 3.1-1.1 2-1.1 4.9zm49 23.4h-9.8v-39.9h9.8zm-4.9-45.6q-2.3 0-4-1.4-1.7-1.5-1.7-3.6 0-2.2 1.7-3.6 1.7-1.5 4-1.5 2.4 0 4.1 1.5 1.7 1.4 1.7 3.6 0 2.1-1.7 3.6-1.7 1.4-4.1 1.4zm2.9 45.6h-9.8v-39.9h9.8zm-4.9-45.6q-2.3 0-4-1.5-1.7-1.4-1.7-3.5 0-2.2 1.7-3.6 1.7-1.5 4-1.5 2.4 0 4 1.5 1.7 1.4 1.7 3.6 0 2.1-1.7 3.5-1.6 1.5-4 1.5z"/>
</svg>